<?xml  version="1.0"  standalone="no"  ?>
<!DOCTYPE  svg  PUBLIC  "-//W3C//DTD  SVG  1.0//EN" "http://www.w3.org/TR/2001/REC-SVG-20010904/DTD/svg10.dtd">
<svg  width="655"  height="378"  xmlns="http://www.w3.org/2000/svg">
<text  x="260"  y="20"  font-family="Arial" font-size="8.75">BLAST alignment of nad5 against other genes</text>
<line x1="450" y1="30" x2="550" y2="30" stroke="red"  stroke-width="1" />
<text  x="550"  y="30"  font-family="Arial" font-size="8.75">matched regions</text>
<rect x="10"  y="50"  width="250"  height="10"  fill="blue" stroke="none"/>
<text  x="100"  y="45"  font-family="Arial" font-size="8.75">nad5</text>
<text  x="10"  y="50"  font-family="Arial" font-size="8.75">1</text>
<text  x="260"  y="50"  font-family="Arial" font-size="8.75">502</text>
<text  x="400"  y="45"  font-family="Arial" font-size="8.75">Subject</text>
<rect x="300"  y="50"  width="250"  height="10"  fill="blue" stroke="none"/>
<line x1="10" y1="75" x2="260" y2="75" stroke="blue"  stroke-width="1" />
<line x1="10" y1="78" x2="259.501992031873" y2="78" stroke="red"  stroke-width="1" />
<line x1="300" y1="75" x2="550" y2="75" stroke="blue"  stroke-width="1" />
<text  x="300"  y="75"  font-family="Arial" font-size="8.75">1</text>
<text  x="550"  y="75"  font-family="Arial" font-size="8.75">686</text>
<text  x="580"  y="75"  font-family="Arial" font-size="8.75">YP_009440492.1</text>
<line x1="300" y1="78" x2="482.580174927114" y2="78" stroke="red"  stroke-width="1" />
<line x1="10" y1="90" x2="260" y2="90" stroke="blue"  stroke-width="1" />
<line x1="10" y1="93" x2="259.501992031873" y2="93" stroke="red"  stroke-width="1" />
<line x1="300" y1="90" x2="550" y2="90" stroke="blue"  stroke-width="1" />
<text  x="300"  y="90"  font-family="Arial" font-size="8.75">1</text>
<text  x="550"  y="90"  font-family="Arial" font-size="8.75">686</text>
<text  x="580"  y="90"  font-family="Arial" font-size="8.75">YP_009466110.1</text>
<line x1="300" y1="93" x2="482.580174927114" y2="93" stroke="red"  stroke-width="1" />
<line x1="10" y1="105" x2="260" y2="105" stroke="blue"  stroke-width="1" />
<line x1="10" y1="108" x2="259.501992031873" y2="108" stroke="red"  stroke-width="1" />
<line x1="300" y1="105" x2="550" y2="105" stroke="blue"  stroke-width="1" />
<text  x="300"  y="105"  font-family="Arial" font-size="8.75">1</text>
<text  x="550"  y="105"  font-family="Arial" font-size="8.75">692</text>
<text  x="580"  y="105"  font-family="Arial" font-size="8.75">NP_570156.1</text>
<line x1="300" y1="108" x2="480.99710982659" y2="108" stroke="red"  stroke-width="1" />
<line x1="10" y1="120" x2="260" y2="120" stroke="blue"  stroke-width="1" />
<line x1="10" y1="123" x2="259.501992031873" y2="123" stroke="red"  stroke-width="1" />
<line x1="300" y1="120" x2="550" y2="120" stroke="blue"  stroke-width="1" />
<text  x="300"  y="120"  font-family="Arial" font-size="8.75">1</text>
<text  x="550"  y="120"  font-family="Arial" font-size="8.75">688</text>
<text  x="580"  y="120"  font-family="Arial" font-size="8.75">YP_009254359.1</text>
<line x1="300" y1="123" x2="482.049418604651" y2="123" stroke="red"  stroke-width="1" />
<line x1="10" y1="135" x2="260" y2="135" stroke="blue"  stroke-width="1" />
<line x1="10" y1="138" x2="259.501992031873" y2="138" stroke="red"  stroke-width="1" />
<line x1="300" y1="135" x2="550" y2="135" stroke="blue"  stroke-width="1" />
<text  x="300"  y="135"  font-family="Arial" font-size="8.75">1</text>
<text  x="550"  y="135"  font-family="Arial" font-size="8.75">688</text>
<text  x="580"  y="135"  font-family="Arial" font-size="8.75">YP_009826340.1</text>
<line x1="300" y1="138" x2="482.049418604651" y2="138" stroke="red"  stroke-width="1" />
<line x1="10" y1="150" x2="260" y2="150" stroke="blue"  stroke-width="1" />
<line x1="10" y1="153" x2="259.501992031873" y2="153" stroke="red"  stroke-width="1" />
<line x1="300" y1="150" x2="550" y2="150" stroke="blue"  stroke-width="1" />
<text  x="300"  y="150"  font-family="Arial" font-size="8.75">1</text>
<text  x="550"  y="150"  font-family="Arial" font-size="8.75">663</text>
<text  x="580"  y="150"  font-family="Arial" font-size="8.75">YP_010461103.1</text>
<line x1="300" y1="153" x2="488.914027149321" y2="153" stroke="red"  stroke-width="1" />
<line x1="10" y1="165" x2="260" y2="165" stroke="blue"  stroke-width="1" />
<line x1="10" y1="168" x2="259.501992031873" y2="168" stroke="red"  stroke-width="1" />
<line x1="300" y1="165" x2="550" y2="165" stroke="blue"  stroke-width="1" />
<text  x="300"  y="165"  font-family="Arial" font-size="8.75">1</text>
<text  x="550"  y="165"  font-family="Arial" font-size="8.75">663</text>
<text  x="580"  y="165"  font-family="Arial" font-size="8.75">YP_010383008.1</text>
<line x1="300" y1="168" x2="488.914027149321" y2="168" stroke="red"  stroke-width="1" />
<line x1="10" y1="180" x2="260" y2="180" stroke="blue"  stroke-width="1" />
<line x1="10" y1="183" x2="259.501992031873" y2="183" stroke="red"  stroke-width="1" />
<line x1="300" y1="180" x2="550" y2="180" stroke="blue"  stroke-width="1" />
<text  x="300"  y="180"  font-family="Arial" font-size="8.75">1</text>
<text  x="550"  y="180"  font-family="Arial" font-size="8.75">663</text>
<text  x="580"  y="180"  font-family="Arial" font-size="8.75">YP_009992189.1</text>
<line x1="300" y1="183" x2="488.914027149321" y2="183" stroke="red"  stroke-width="1" />
<line x1="10" y1="195" x2="260" y2="195" stroke="blue"  stroke-width="1" />
<line x1="10" y1="198" x2="259.501992031873" y2="198" stroke="red"  stroke-width="1" />
<line x1="300" y1="195" x2="550" y2="195" stroke="blue"  stroke-width="1" />
<text  x="300"  y="195"  font-family="Arial" font-size="8.75">1</text>
<text  x="550"  y="195"  font-family="Arial" font-size="8.75">922</text>
<text  x="580"  y="195"  font-family="Arial" font-size="8.75">YP_010043421.1</text>
<line x1="300" y1="198" x2="435.845986984816" y2="198" stroke="red"  stroke-width="1" />
<line x1="10" y1="210" x2="260" y2="210" stroke="blue"  stroke-width="1" />
<line x1="10" y1="213" x2="259.501992031873" y2="213" stroke="red"  stroke-width="1" />
<line x1="300" y1="210" x2="550" y2="210" stroke="blue"  stroke-width="1" />
<text  x="300"  y="210"  font-family="Arial" font-size="8.75">1</text>
<text  x="550"  y="210"  font-family="Arial" font-size="8.75">1068</text>
<text  x="580"  y="210"  font-family="Arial" font-size="8.75">YP_009672800.1</text>
<line x1="300" y1="213" x2="417.275280898876" y2="213" stroke="red"  stroke-width="1" />
<line x1="10" y1="225" x2="260" y2="225" stroke="blue"  stroke-width="1" />
<line x1="10" y1="228" x2="259.501992031873" y2="228" stroke="red"  stroke-width="1" />
<line x1="300" y1="225" x2="550" y2="225" stroke="blue"  stroke-width="1" />
<text  x="300"  y="225"  font-family="Arial" font-size="8.75">1</text>
<text  x="550"  y="225"  font-family="Arial" font-size="8.75">919</text>
<text  x="580"  y="225"  font-family="Arial" font-size="8.75">YP_009254037.1</text>
<line x1="300" y1="228" x2="436.289445048966" y2="228" stroke="red"  stroke-width="1" />
<line x1="10" y1="240" x2="260" y2="240" stroke="blue"  stroke-width="1" />
<line x1="10" y1="243" x2="259.501992031873" y2="243" stroke="red"  stroke-width="1" />
<line x1="300" y1="240" x2="550" y2="240" stroke="blue"  stroke-width="1" />
<text  x="300"  y="240"  font-family="Arial" font-size="8.75">1</text>
<text  x="550"  y="240"  font-family="Arial" font-size="8.75">669</text>
<text  x="580"  y="240"  font-family="Arial" font-size="8.75">YP_009307012.1</text>
<line x1="300" y1="243" x2="487.219730941704" y2="243" stroke="red"  stroke-width="1" />
<line x1="10" y1="255" x2="260" y2="255" stroke="blue"  stroke-width="1" />
<line x1="10" y1="258" x2="259.501992031873" y2="258" stroke="red"  stroke-width="1" />
<line x1="300" y1="255" x2="550" y2="255" stroke="blue"  stroke-width="1" />
<text  x="300"  y="255"  font-family="Arial" font-size="8.75">1</text>
<text  x="550"  y="255"  font-family="Arial" font-size="8.75">668</text>
<text  x="580"  y="255"  font-family="Arial" font-size="8.75">YP_010132249.1</text>
<line x1="300" y1="258" x2="487.5" y2="258" stroke="red"  stroke-width="1" />
<line x1="10" y1="270" x2="260" y2="270" stroke="blue"  stroke-width="1" />
<line x1="10" y1="273" x2="259.501992031873" y2="273" stroke="red"  stroke-width="1" />
<line x1="300" y1="270" x2="550" y2="270" stroke="blue"  stroke-width="1" />
<text  x="300"  y="270"  font-family="Arial" font-size="8.75">1</text>
<text  x="550"  y="270"  font-family="Arial" font-size="8.75">669</text>
<text  x="580"  y="270"  font-family="Arial" font-size="8.75">YP_009750541.1</text>
<line x1="300" y1="273" x2="487.219730941704" y2="273" stroke="red"  stroke-width="1" />
<line x1="10" y1="285" x2="260" y2="285" stroke="blue"  stroke-width="1" />
<line x1="10" y1="288" x2="259.501992031873" y2="288" stroke="red"  stroke-width="1" />
<line x1="300" y1="285" x2="550" y2="285" stroke="blue"  stroke-width="1" />
<text  x="300"  y="285"  font-family="Arial" font-size="8.75">1</text>
<text  x="550"  y="285"  font-family="Arial" font-size="8.75">667</text>
<text  x="580"  y="285"  font-family="Arial" font-size="8.75">YP_010303554.1</text>
<line x1="300" y1="288" x2="487.781109445277" y2="288" stroke="red"  stroke-width="1" />
<line x1="10" y1="300" x2="260" y2="300" stroke="blue"  stroke-width="1" />
<line x1="10" y1="303" x2="259.501992031873" y2="303" stroke="red"  stroke-width="1" />
<line x1="300" y1="300" x2="550" y2="300" stroke="blue"  stroke-width="1" />
<text  x="300"  y="300"  font-family="Arial" font-size="8.75">1</text>
<text  x="550"  y="300"  font-family="Arial" font-size="8.75">669</text>
<text  x="580"  y="300"  font-family="Arial" font-size="8.75">YP_009444545.1</text>
<line x1="300" y1="303" x2="487.219730941704" y2="303" stroke="red"  stroke-width="1" />
<line x1="10" y1="315" x2="260" y2="315" stroke="blue"  stroke-width="1" />
<line x1="10" y1="318" x2="259.501992031873" y2="318" stroke="red"  stroke-width="1" />
<line x1="300" y1="315" x2="550" y2="315" stroke="blue"  stroke-width="1" />
<text  x="300"  y="315"  font-family="Arial" font-size="8.75">1</text>
<text  x="550"  y="315"  font-family="Arial" font-size="8.75">664</text>
<text  x="580"  y="315"  font-family="Arial" font-size="8.75">YP_008815543.1</text>
<line x1="300" y1="318" x2="488.629518072289" y2="318" stroke="red"  stroke-width="1" />
<line x1="10" y1="330" x2="260" y2="330" stroke="blue"  stroke-width="1" />
<line x1="10" y1="333" x2="259.501992031873" y2="333" stroke="red"  stroke-width="1" />
<line x1="300" y1="330" x2="550" y2="330" stroke="blue"  stroke-width="1" />
<text  x="300"  y="330"  font-family="Arial" font-size="8.75">1</text>
<text  x="550"  y="330"  font-family="Arial" font-size="8.75">662</text>
<text  x="580"  y="330"  font-family="Arial" font-size="8.75">YP_010710127.1</text>
<line x1="300" y1="333" x2="489.199395770393" y2="333" stroke="red"  stroke-width="1" />
<line x1="10" y1="345" x2="260" y2="345" stroke="blue"  stroke-width="1" />
<line x1="10" y1="348" x2="259.501992031873" y2="348" stroke="red"  stroke-width="1" />
<line x1="300" y1="345" x2="550" y2="345" stroke="blue"  stroke-width="1" />
<text  x="300"  y="345"  font-family="Arial" font-size="8.75">1</text>
<text  x="550"  y="345"  font-family="Arial" font-size="8.75">664</text>
<text  x="580"  y="345"  font-family="Arial" font-size="8.75">YP_009327848.1</text>
<line x1="300" y1="348" x2="488.629518072289" y2="348" stroke="red"  stroke-width="1" />
<line x1="10" y1="360" x2="260" y2="360" stroke="blue"  stroke-width="1" />
<line x1="10" y1="363" x2="259.501992031873" y2="363" stroke="red"  stroke-width="1" />
<line x1="300" y1="360" x2="550" y2="360" stroke="blue"  stroke-width="1" />
<text  x="300"  y="360"  font-family="Arial" font-size="8.75">1</text>
<text  x="550"  y="360"  font-family="Arial" font-size="8.75">664</text>
<text  x="580"  y="360"  font-family="Arial" font-size="8.75">YP_009327793.1</text>
<line x1="300" y1="363" x2="488.629518072289" y2="363" stroke="red"  stroke-width="1" />
</svg>
